<svg width="124" height="97" viewBox="0 0 124 97" fill="none" xmlns="http://www.w3.org/2000/svg">
<path fill-rule="evenodd" clip-rule="evenodd" d="M65.8419 0.901801L3.30058 37.4549C0.137288 39.3034 -0.941289 43.3946 0.896584 46.5763L3.1235 50.4326L7.92612 58.7417L22.3581 83.7257C24.196 86.9074 28.2635 87.9896 31.4268 86.141L93.9681 49.5906C97.1314 47.7421 98.2073 43.6509 96.3694 40.4692L81.9374 15.4852L77.1375 7.17614L74.9106 3.31978C73.0727 0.138086 69.0025 -0.946766 65.8419 0.901801ZM3.27911 45.1838C2.20322 43.3217 2.83373 40.9307 4.68502 39.8512L67.2237 3.29819C69.0723 2.21874 71.4522 2.85292 72.5254 4.71228L74.0627 7.37044L4.8138 47.8419L3.27911 45.1838ZM93.9869 41.8617C95.0628 43.7211 94.4323 46.1121 92.5837 47.1942L30.0423 83.7446C28.1937 84.8268 25.8139 84.1926 24.7406 82.3332L10.9982 58.5474L80.2471 18.0759L93.9869 41.8617ZM78.8627 15.6795L9.61374 56.151L6.19825 50.2383L75.4472 9.76413L78.8627 15.6795Z" fill="black"/>
<path fill-rule="evenodd" clip-rule="evenodd" d="M33.0905 75.6467C35.3818 74.3082 36.1625 71.3478 34.8318 69.0458C33.501 66.7412 30.555 65.9559 28.2637 67.2944C25.9751 68.633 25.1943 71.5961 26.5251 73.9007C27.8559 76.2026 30.8019 76.9852 33.0905 75.6467ZM29.6482 69.6908C30.6248 69.1214 31.8831 69.456 32.4492 70.4383C33.0154 71.418 32.6827 72.6809 31.706 73.2503C30.7294 73.8224 29.4738 73.4878 28.9076 72.5082C28.3415 71.5259 28.6742 70.2602 29.6482 69.6908Z" fill="black"/>
<path fill-rule="evenodd" clip-rule="evenodd" d="M40.3346 67.6209L73.894 48.0045C74.5513 47.6213 74.7767 46.774 74.393 46.1128C74.012 45.4489 73.1695 45.2249 72.5095 45.6108L38.9502 65.2245C38.2902 65.6078 38.0675 66.4551 38.4512 67.119C38.8322 67.7802 39.6746 68.0041 40.3346 67.6209Z" fill="black"/>
<path fill-rule="evenodd" clip-rule="evenodd" d="M60.189 47.7913C64.8199 37.264 93.5578 37.5365 99.5195 47.7913L99.2968 56.8507C94.1025 57.2069 91.7307 60.0432 89.8472 63.3139C90.5126 74.122 93.7188 82.2476 98.5134 88.6946C84.237 95.2577 71.6536 94.6721 60.2668 88.1495L60.189 47.7913Z" fill="#F2F2F2" stroke="#F2F2F2" stroke-width="0.0761997"/>
<path fill-rule="evenodd" clip-rule="evenodd" d="M123.986 82.9007C123.838 78.7043 122.54 73.647 120.324 68.66C118.11 63.6729 115.237 59.32 112.226 56.4081C108.993 53.275 105.897 52.1308 103.501 53.1671C103.482 53.1752 103.464 53.1779 103.442 53.1887L100.633 54.4489V47.8211C100.633 47.8103 100.636 47.8022 100.636 47.7914C100.636 42.5479 91.6395 38.5944 79.7107 38.5944C67.8062 38.5944 58.8234 42.5317 58.7858 47.759C58.7858 47.7698 58.7831 47.7806 58.7831 47.7941V59.6438C58.7831 59.7059 58.7912 59.7679 58.8019 59.8273C58.7912 59.8867 58.7831 59.9461 58.7831 60.0081C58.7831 60.1161 58.7912 60.2213 58.7992 60.3266C58.7912 60.3832 58.7831 60.4372 58.7831 60.4966V72.3463C58.7831 72.4111 58.7912 72.4704 58.8019 72.5298C58.7912 72.5919 58.7831 72.6512 58.7831 72.716C58.7831 72.8482 58.7939 72.9805 58.8046 73.1127C58.7912 73.1802 58.7831 73.253 58.7831 73.3232V85.1756C58.7831 85.2377 58.7912 85.2971 58.8019 85.3564C58.7912 85.4185 58.7831 85.4779 58.7831 85.5399C58.7831 90.7834 67.7793 94.7369 79.7107 94.7369C87.2903 94.7369 94.1964 92.9963 97.8346 90.2491C101.086 94.4967 104.588 97.0011 107.52 97.0011C108.188 97.0011 108.827 96.8715 109.428 96.6017L120.477 91.6362C120.487 91.6335 120.498 91.6308 120.509 91.6254C122.91 90.5459 124.147 87.4479 123.986 82.9007ZM92.6885 58.0192L92.3532 58.1676C90.0458 59.2039 88.8813 62.0645 88.8411 65.9829C86.0561 66.5955 82.9331 66.9355 79.7134 66.9355C68.7076 66.9355 61.0396 63.2843 61.0396 60.0081C61.0396 59.9461 61.0315 59.884 61.0208 59.8246C61.0315 59.7652 61.0396 59.7059 61.0396 59.6438V52.0768C64.4282 55.0453 71.3477 56.991 79.7107 56.991C88.0711 56.991 94.9879 55.0453 98.3792 52.0768V55.4636L92.6885 58.0192ZM61.0208 72.5298C61.0315 72.4704 61.0396 72.4111 61.0396 72.3463V64.2909C64.4309 67.2594 71.3477 69.2051 79.7134 69.2051C82.9384 69.2051 86.099 68.892 88.9404 68.301C89.2006 71.1832 89.968 74.4755 91.2478 77.9568C87.8242 79.0713 83.9553 79.6407 79.7134 79.6407C68.7076 79.6407 61.0396 75.9922 61.0396 72.716C61.0396 72.6512 61.0315 72.5919 61.0208 72.5298ZM79.7107 40.864C90.7031 40.864 98.3658 44.5071 98.3792 47.7833C98.3792 47.786 98.3792 47.7887 98.3792 47.7914V47.813C98.347 51.0837 90.6897 54.7215 79.7107 54.7215C68.7076 54.7215 61.0396 51.0702 61.0396 47.7914C61.0396 44.5152 68.7076 40.864 79.7107 40.864ZM79.7134 92.47C68.7076 92.47 61.0396 88.8188 61.0396 85.5399C61.0396 85.4779 61.0315 85.4185 61.0208 85.3591C61.0315 85.2971 61.0396 85.2377 61.0396 85.1756V76.9987C64.4309 79.9646 71.3477 81.9103 79.7134 81.9103C84.2477 81.9103 88.3957 81.2869 92.0768 80.0698C92.2244 80.4233 92.3773 80.7795 92.5356 81.1385C93.743 83.8533 95.0979 86.2929 96.5226 88.4113C93.3459 90.859 86.7752 92.47 79.7134 92.47ZM108.816 94.3888L108.497 94.5372C105.516 95.8676 99.0822 90.3138 94.5962 80.2128C90.1128 70.1064 90.3033 61.576 93.2708 60.2402L100.488 56.9991C100.08 58.3539 99.8978 60.0054 99.9649 61.9134C100.112 66.1097 101.414 71.1697 103.627 76.1568C105.841 81.1439 108.717 85.4941 111.725 88.4059C113.098 89.7336 114.44 90.6889 115.72 91.288L108.816 94.3888ZM119.594 89.5528C119.591 89.5528 119.591 89.5528 119.589 89.5528L119.581 89.5555C118.094 90.2167 115.8 89.202 113.289 86.7705C110.485 84.0584 107.786 79.9592 105.688 75.2338C103.59 70.5031 102.358 65.7454 102.221 61.8324C102.098 58.3215 102.879 55.9278 104.368 55.2612C104.668 55.1263 104.998 55.0588 105.358 55.0588C106.788 55.0588 108.655 56.0978 110.662 58.0435C113.469 60.7556 116.168 64.8549 118.266 69.5856C120.364 74.3109 121.595 79.0686 121.732 82.9816C121.856 86.4872 121.075 88.8809 119.594 89.5528Z" fill="black"/>
</svg>
