<svg width="93" height="97" viewBox="0 0 93 97" fill="none" xmlns="http://www.w3.org/2000/svg">
<path d="M34.8888 41.1973C15.6493 41.1973 0 55.9107 0 73.9994C0 74.6918 0.644384 75.2977 1.38082 75.2977H19.6997C22.7375 80.0578 28.2608 83.3467 34.5206 83.3467C40.7803 83.3467 46.3956 80.1444 49.3414 75.2977H68.3047C69.0411 75.2977 69.6855 74.6918 69.6855 73.9994C69.7776 55.9107 54.1283 41.1973 34.8888 41.1973ZM2.8537 72.7012C3.31397 62.6615 8.92932 53.92 17.3063 48.7271V67.0755C17.3063 69.0661 17.6745 70.8837 18.411 72.7012H2.8537ZM34.5206 80.6637C26.5118 80.6637 20.068 74.5187 20.068 67.0755V47.1692C24.4866 45.0055 29.5496 43.7073 34.8888 43.7073C39.9518 43.7073 44.7387 44.8324 49.0652 46.823V66.9889C49.0652 69.2392 48.5129 71.3164 47.5003 73.1339C47.4082 73.2205 47.4082 73.307 47.3162 73.3936C44.8307 77.8076 40.0439 80.6637 34.5206 80.6637ZM50.7222 72.7012C51.3666 70.9702 51.8269 69.0661 51.8269 67.0755V48.2943C60.5721 53.4007 66.5557 62.4018 67.0159 72.6146H50.7222V72.7012Z" fill="black"/>
<path d="M34.3365 37.6488C45.383 37.6488 54.4044 29.167 54.4044 18.7811C54.4044 18.3484 54.4044 17.9157 54.3124 17.4829H62.137C62.8735 17.4829 63.5178 16.8771 63.5178 16.1847C63.5178 15.4923 62.8735 14.8864 62.137 14.8864H53.9441C52.011 6.40463 43.9102 0 34.3365 0C23.2899 0 14.2685 8.48181 14.2685 18.8677C14.2685 29.167 23.2899 37.6488 34.3365 37.6488ZM34.3365 2.59647C42.4373 2.59647 49.2493 7.87597 51.0904 14.973H17.5825C19.4236 7.87597 26.2356 2.59647 34.3365 2.59647ZM17.1222 17.5695H51.4587C51.4587 18.0022 51.5507 18.4349 51.5507 18.8677C51.5507 27.7822 43.8181 35.1389 34.2444 35.1389C24.6707 35.1389 17.0301 27.7822 17.0301 18.7811C17.0301 18.3484 17.0301 17.9157 17.1222 17.5695Z" fill="black"/>
<ellipse cx="71.8028" cy="67.5083" rx="12.8877" ry="12.1169" fill="#F2F2F2"/>
<path d="M92.7573 88.803L83.1892 75.7202C85.0146 73.4622 86.0263 70.7333 86.0465 67.8486C86.1027 60.5577 79.8402 54.5815 72.0846 54.5261C64.3584 54.4915 57.9726 60.3716 57.9155 67.6625C57.8943 70.6199 58.9253 73.3496 60.6606 75.5662L50.8844 88.5217C50.5557 88.9588 50.5447 89.5404 50.8577 89.987C51.1706 90.4336 51.7414 90.6543 52.2992 90.5426L60.0337 88.9882L61.3924 95.8195C61.5001 96.3604 61.9576 96.7785 62.5357 96.8642C62.6075 96.8745 62.6793 96.8797 62.7493 96.8797C63.251 96.8797 63.7205 96.6227 63.9635 96.1986L71.871 82.4425L79.5705 96.3025C79.8107 96.7352 80.2848 97 80.793 97C80.8574 97 80.9228 96.9957 80.9881 96.9871C81.5672 96.9092 82.032 96.4981 82.148 95.9589L83.6117 89.1492L91.3093 90.8049C91.8616 90.9234 92.4407 90.7122 92.7601 90.2691C93.0814 89.8243 93.0795 89.2426 92.7573 88.803ZM71.9907 57.1226C72.0146 57.1226 72.0404 57.1226 72.0643 57.1226C78.2974 57.1667 83.33 61.971 83.284 67.8304V67.8313C83.2646 70.6666 82.0688 73.3263 79.9166 75.3186C77.7855 77.292 74.9723 78.3764 71.9861 78.3756C71.9585 78.3756 71.929 78.3756 71.9005 78.3756C65.6702 78.3357 60.6357 73.5375 60.6771 67.6798C60.7223 61.8438 65.7917 57.1226 71.9907 57.1226ZM63.3909 91.7361L62.4897 87.201C62.4216 86.8574 62.2071 86.5527 61.8978 86.3588C61.5866 86.1632 61.2055 86.0949 60.8428 86.1693L55.1879 87.3057L62.5578 77.5395C64.5149 79.2064 66.9682 80.3584 69.6884 80.7799L63.3909 91.7361ZM82.8486 86.319C82.4831 86.2403 82.1038 86.3043 81.7918 86.493C81.4788 86.6834 81.2615 86.9837 81.187 87.3273L80.2149 91.8504L74.0822 80.8119C76.7444 80.4389 79.2188 79.3605 81.2625 77.6676L88.4749 87.5298L82.8486 86.319Z" fill="black"/>
</svg>
