<svg width="90" height="97" viewBox="0 0 90 97" fill="none" xmlns="http://www.w3.org/2000/svg">
<path d="M90 27.4297V27.4254C90 27.4211 89.9989 27.4179 89.9989 27.4137C89.9979 27.2985 89.9818 27.1833 89.9562 27.0702C89.9477 27.0339 89.9359 26.9998 89.9253 26.9646C89.9018 26.8867 89.8719 26.8099 89.8356 26.7342C89.8164 26.6947 89.7961 26.6553 89.7737 26.6179C89.7587 26.5923 89.7481 26.5635 89.7321 26.539C89.7032 26.4963 89.668 26.4611 89.636 26.4217C89.6104 26.3897 89.5869 26.3577 89.5591 26.3278C89.4769 26.2403 89.3883 26.1625 89.2912 26.0974C89.2901 26.0963 89.289 26.0953 89.288 26.0942L89.2869 26.0931C89.2837 26.091 89.2805 26.0889 89.2784 26.0867L50.4533 0.268001C49.9153 -0.0893336 49.2161 -0.0893336 48.6781 0.268001L35.0119 9.37203L35.0109 9.37309L22.4538 17.7368C22.282 17.8126 22.1208 17.916 21.982 18.0515L0.724833 32.2126C0.622353 32.2798 0.528413 32.363 0.440878 32.4548C0.413123 32.4846 0.389638 32.5166 0.364018 32.5486C0.331993 32.5881 0.296765 32.6222 0.267943 32.666C0.250863 32.6905 0.241255 32.7182 0.22631 32.7438C0.203892 32.7822 0.182543 32.8217 0.163328 32.8633C0.1281 32.9369 0.0992773 33.0126 0.0757922 33.0894C0.0640497 33.1268 0.0523075 33.162 0.0437674 33.1993C0.0192149 33.3081 0.00426977 33.418 0.00320227 33.5289C0.00320227 33.5374 0 33.5449 0 33.5524V33.5609V33.562V69.5738C0 70.1093 0.267943 70.6095 0.714159 70.9061L39.5467 96.7323C39.552 96.7355 39.5573 96.7365 39.5627 96.7397C39.6748 96.8123 39.7975 96.8667 39.9256 96.9104C39.9577 96.9211 39.9886 96.9317 40.0206 96.9403C40.153 96.9755 40.2896 97 40.4327 97C40.5757 97 40.7124 96.9755 40.8447 96.9392C40.8768 96.9307 40.9088 96.92 40.9398 96.9093C41.0711 96.8656 41.197 96.8101 41.3102 96.7355C41.3134 96.7333 41.3166 96.7323 41.3198 96.7312L41.3262 96.7269C41.3273 96.7269 41.3273 96.7259 41.3283 96.7259L89.2848 64.7791C89.7299 64.4826 89.9979 63.9834 89.9979 63.4479V27.4371C90 27.435 90 27.4318 90 27.4297ZM49.5673 3.52134L85.5101 27.4265L74.1423 34.9998L38.7343 10.7384L49.5673 3.52134ZM40.4338 57.4554L4.48884 33.5502L23.1114 21.1449L58.5204 45.4063L40.4338 57.4554ZM35.8627 12.651L71.2707 36.9124L61.391 43.4937L25.9819 19.2323L35.8627 12.651ZM62.9463 46.3033L72.4524 39.9705L72.114 55.0468L62.9463 61.0564V46.3033ZM3.2025 36.538L38.8325 60.2351V92.4123L3.2025 68.7162V36.538ZM42.035 92.4101V60.234L59.7438 48.4367V64.0196C59.7438 64.6074 60.0672 65.1482 60.5839 65.4277C60.823 65.5556 61.0846 65.6197 61.345 65.6197C61.6514 65.6197 61.9578 65.5322 62.2236 65.3572L74.5746 57.2602C75.0144 56.9711 75.2845 56.4847 75.2973 55.9578L75.704 37.8041L86.7975 30.4142V62.5914L42.035 92.4101Z" fill="black"/>
<path d="M35.9032 68.2371C36.421 68.2371 36.9291 67.9873 37.2376 67.5229C37.7276 66.7874 37.528 65.7925 36.7925 65.3025L18.4464 53.0914C17.7098 52.6014 16.7149 52.7999 16.226 53.5376C15.736 54.2731 15.9356 55.268 16.6711 55.758L35.0183 67.9691C35.2905 68.1506 35.599 68.2371 35.9032 68.2371Z" fill="black"/>
<path d="M36.7924 73.6557L26.2861 66.6625C25.5495 66.1725 24.5546 66.3721 24.0657 67.1087C23.5757 67.8442 23.7753 68.8391 24.5108 69.3291L35.0172 76.3223C35.2894 76.5038 35.5979 76.5903 35.9032 76.5903C36.421 76.5903 36.9291 76.3405 37.2376 75.8761C37.7276 75.1395 37.528 74.1457 36.7924 73.6557Z" fill="black"/>
</svg>
