<svg width="95" height="97" viewBox="0 0 95 97" fill="none" xmlns="http://www.w3.org/2000/svg">
<path d="M90.8154 48.518C93.3398 46.8705 94.9989 44.1421 94.9989 41.0561C94.9989 36.051 90.6214 31.9802 85.2407 31.9802H59.2402C60.4694 29.6442 61.714 25.816 61.4295 20.1157C60.8706 8.42998 53.8772 2.36749 49.8326 0.627206C47.4471 -0.398857 44.851 -0.155194 42.8899 1.27883C40.9211 2.71845 38.6987 6.02465 39.2929 13.6028C39.908 21.4782 30.0208 30.0209 25.2035 33.6915V30.6938C25.2035 29.7672 24.4638 29.0172 23.5499 29.0172H1.65355C0.73969 29.0172 0 29.7672 0 30.6938V91.2538C0 92.1793 0.73969 92.9304 1.65355 92.9304H23.5499C24.4638 92.9304 25.2035 92.1793 25.2035 91.2538V88.1946C31.4363 90.4669 48.9628 96.5898 57.6242 96.877L75.0163 97C80.3903 97 84.7623 92.7471 84.7623 87.5206C84.7623 85.1142 83.8319 82.9212 82.3117 81.2458C86.9505 80.5137 90.5067 76.6095 90.5067 71.9028C90.5067 69.3958 89.4915 67.119 87.8489 65.4223C91.9663 64.3091 95 60.6407 95 56.2883C94.9989 53.0738 93.3409 50.2325 90.8154 48.518ZM3.30711 89.5761V32.3692H21.8964V36.8624C21.8942 36.9071 21.8953 36.9518 21.8964 36.9966V85.767C21.8953 85.8128 21.8931 85.8586 21.8964 85.9044V89.5772H3.30711V89.5761ZM85.2407 62.4223H76.7646C76.7613 62.4223 76.758 62.4235 76.7536 62.4235H75.0163C74.1035 62.4235 73.3627 63.1746 73.3627 64.1C73.3627 65.0255 74.1035 65.7766 75.0163 65.7766H80.7431C84.3026 65.7766 87.1985 68.5251 87.1985 71.9017C87.1985 75.2783 84.3026 78.0257 80.7431 78.0257H75.0383C75.0306 78.0257 75.024 78.0245 75.0163 78.0245H68.9378C68.025 78.0245 67.2842 78.7757 67.2842 79.7011C67.2842 80.6266 68.025 81.3777 68.9378 81.3777H75.0052C75.0085 81.3777 75.0118 81.3788 75.0163 81.3788H75.0383C78.578 81.3911 81.4541 84.1396 81.4541 87.5195C81.4541 90.8973 78.5659 93.6457 75.0273 93.6457L57.6892 93.5239C49.0665 93.2366 29.9437 86.3739 25.2035 84.6258V37.8348C28.7851 35.3367 43.4543 24.3943 42.5889 13.3379C42.2208 8.63787 43.0145 5.32161 44.8234 3.99935C46.3282 2.90064 48.049 3.50532 48.5417 3.71546C51.8753 5.1506 57.6473 10.2541 58.1268 20.2834C58.5623 28.9993 55.081 32.2597 54.9476 32.3804C54.4196 32.8364 54.2278 33.5763 54.4659 34.2369C54.7062 34.8964 55.3246 35.3345 56.018 35.3345H85.2396C88.797 35.3345 91.6907 37.9019 91.6907 41.0572C91.6907 44.2282 88.797 46.809 85.2396 46.809H78.1701C77.2574 46.809 76.5166 47.559 76.5166 48.4856C76.5166 49.4121 77.2574 50.1621 78.1701 50.1621H85.2396C88.797 50.1621 91.6907 52.9095 91.6907 56.2883C91.6918 59.6694 88.7981 62.4223 85.2407 62.4223Z" fill="black"/>
</svg>
